<svg width="123" height="26" viewBox="0 0 123 26" fill="none" xmlns="http://www.w3.org/2000/svg">
<g clip-path="url(#clip0_35_6442)">
<path d="M75.1132 24.9853C74.4814 25.0218 73.9503 25.0705 73.4159 25.0766C72.6804 25.0858 71.9418 25.0583 71.1592 25.0462C70.9517 24.4158 70.7757 23.8767 70.5494 23.1915C70.0779 23.5204 69.7039 23.7549 69.355 24.0229C65.7687 26.7942 60.3657 25.4116 58.4578 21.6018C56.7982 18.2883 56.7542 14.8866 58.3006 11.5396C60.3908 7.02326 66.2653 6.15227 69.5562 8.9358C69.8013 9.14289 70.0748 9.31952 70.4897 9.62407C70.6311 9.12157 70.804 8.78048 70.8134 8.43635C70.848 6.8649 70.8291 5.29345 70.8448 3.72201C70.8511 3.00937 70.8983 2.2937 70.9297 1.54756C72.3818 0.971976 73.7365 1.10293 75.2138 1.40747C75.2547 1.91911 75.3144 2.3607 75.3238 2.80533C75.5061 12.3771 75.4181 22.9905 75.1132 24.9853ZM70.826 16.4824C70.8228 16.4824 70.8166 16.4824 70.8134 16.4824C70.8134 15.6327 70.87 14.7769 70.7914 13.9364C70.7506 13.5131 70.5682 13.0197 70.2759 12.7152C68.2801 10.6352 63.776 10.4067 62.283 14.1374C61.8775 15.1485 61.8461 16.1839 61.9467 17.2255C62.1227 19.0467 62.9807 20.475 64.744 21.2455C66.5136 22.016 68.17 21.6018 69.7196 20.6059C70.4425 20.143 70.8637 19.5217 70.8323 18.6447C70.804 17.9229 70.826 17.2011 70.826 16.4824Z" fill="#6A2381"/>
<path d="M91.5335 9.77327C91.9453 6.82833 91.5115 4.15748 91.8259 1.55668C93.2748 1.06941 93.9255 1.04505 95.9276 1.41659C95.9905 1.81554 96.1131 2.25104 96.1162 2.68654C96.1288 9.62709 96.1288 16.5646 96.1194 23.5051C96.1194 23.9498 96.0345 24.3914 95.9779 24.9426C94.5824 25.1558 93.2654 25.1405 91.8887 24.9578C91.7756 24.4036 91.6718 23.9011 91.5398 23.2646C91.1972 23.4199 90.8766 23.496 90.644 23.6787C89.8551 24.3091 89.0159 24.8269 88.0352 25.1466C85.0084 26.1364 81.2461 24.8238 79.5739 22.0799C78.3953 20.1521 78.0118 18.0416 78.0872 15.8581C78.1313 14.5546 78.389 13.2603 78.8982 12.0299C81.0638 6.81615 87.4443 6.1157 90.5843 9.09414C90.7729 9.27687 91.0086 9.40477 91.5335 9.77327ZM91.7127 16.4763C91.7096 15.6906 91.7599 14.9018 91.6907 14.1191C91.653 13.6867 91.5398 13.172 91.2632 12.8583C89.4214 10.7661 85.2096 10.3915 83.4777 13.4308C82.6574 14.8683 82.5159 16.388 82.9057 17.9929C83.7166 21.3307 87.4978 22.8352 90.7415 20.4688C91.3701 20.012 91.7504 19.4364 91.7158 18.6325C91.6876 17.9198 91.7127 17.198 91.7127 16.4763Z" fill="#6A2381"/>
<path d="M19.8952 18.9739C19.1157 19.0683 18.6568 19.1536 18.1948 19.1749C13.7819 19.4003 9.96296 21.0296 6.60924 23.7613C6.3515 23.9715 6.10634 24.1968 5.85175 24.41C5.3237 24.8546 4.72336 25.1166 4.01302 25.1105C3.33724 25.1044 2.65518 25.1622 1.98884 25.08C0.184686 24.8638 -0.582237 23.1401 0.492712 21.7392C0.813311 21.3219 1.2062 20.9534 1.58966 20.5849C3.86529 18.4014 6.48666 16.699 9.42862 15.4625C9.86238 15.2798 10.3087 15.1245 10.7236 14.9082C11.4182 14.5458 11.8394 13.9733 11.9431 13.2028C12.0846 12.146 11.3302 10.733 10.3558 10.2244C9.28718 9.67009 8.08022 9.95332 7.33216 10.9918C6.98641 11.473 6.75697 12.0273 6.43637 12.5267C5.89575 13.3673 5.08482 13.5652 4.18274 13.1114C3.12665 12.5815 2.68347 11.5491 3.06065 10.4771C3.14866 10.2305 3.26809 9.99291 3.39068 9.76146C4.65736 7.37993 5.92718 5.00144 7.197 2.61991C7.2913 2.44632 7.37302 2.26359 7.48617 2.10218C8.46368 0.707371 10.1735 0.743916 11.1291 2.18441C11.3114 2.4585 11.4528 2.75695 11.61 3.04627C14.1433 7.81542 16.6798 12.5754 19.2038 17.3446C19.4426 17.7923 19.6029 18.2765 19.8952 18.9739Z" fill="#6A2381"/>
<path d="M54.2284 24.9825C52.8329 25.1317 51.5756 25.1013 50.1895 25.016C50.0543 24.4313 49.9286 23.8922 49.7652 23.1918C49.2748 23.5115 48.8819 23.7308 48.5331 24.0018C44.9782 26.7702 39.6317 25.4515 37.6327 21.6508C37.3278 21.0721 37.0669 20.46 36.8941 19.8357C36.212 17.3811 36.1868 14.9051 37.0418 12.5023C38.0696 9.61215 40.122 7.80621 43.3532 7.41944C45.1793 7.20321 46.8295 7.61739 48.3162 8.65284C48.7436 8.95129 49.1554 9.26802 49.7369 9.69743C49.894 9.05789 50.0072 8.5828 50.1392 8.0468C51.431 7.6448 52.7449 7.75748 54.1561 8.00112C54.2598 8.38484 54.4453 8.74725 54.4453 9.1127C54.461 14.0798 54.4547 19.0469 54.4453 24.011C54.4421 24.2638 54.3353 24.5165 54.2284 24.9825ZM49.9632 16.3334C49.9632 15.5477 49.96 14.765 49.9632 13.9793C49.9663 13.4981 49.8123 13.0779 49.454 12.7429C48.0302 11.4151 46.336 10.9217 44.4281 11.4059C42.7088 11.8414 41.7219 13.0444 41.2599 14.6676C40.9487 15.7578 40.911 16.8481 41.2096 17.9597C41.6685 19.6621 42.6208 20.8894 44.425 21.4163C46.2951 21.9614 47.8699 21.395 49.2968 20.2499C49.7306 19.9027 49.9726 19.4489 49.9663 18.8825C49.9569 18.0328 49.9663 17.1831 49.9632 16.3334Z" fill="#6A2381"/>
<path d="M106.495 8.03772C107.922 7.67531 109.186 7.81236 110.525 7.90677C110.673 8.46713 110.798 8.9544 110.93 9.4569C111.141 9.4569 111.396 9.53608 111.509 9.44471C112.961 8.30267 114.592 7.61441 116.459 7.38904C117.638 7.24591 118.766 7.41645 119.847 7.76972C121.516 8.31486 122.5 9.5239 122.837 11.1867C122.953 11.7592 122.984 12.3562 122.987 12.9439C123 16.4096 123.003 19.8753 122.987 23.341C122.984 23.8466 122.877 24.3521 122.824 24.8181C121.139 25.1653 120.404 25.1683 118.637 24.8211C118.606 24.2242 118.546 23.5847 118.543 22.9482C118.53 20.3322 118.552 17.7161 118.527 15.1031C118.521 14.4575 118.468 13.7906 118.288 13.1723C117.993 12.146 117.248 11.5339 116.142 11.3329C114.674 11.0649 113.332 11.3237 112.096 12.1369C111.194 12.7277 110.723 13.4769 110.748 14.5915C110.805 17.2715 110.77 19.9515 110.761 22.6345C110.757 23.3471 110.726 24.0598 110.704 24.812C109.299 25.2779 107.982 25.0587 106.558 24.9886C106.483 24.6384 106.363 24.3369 106.363 24.0324C106.354 18.9983 106.357 13.9641 106.363 8.92699C106.363 8.67726 106.436 8.42449 106.495 8.03772Z" fill="#6A2381"/>
<path d="M25.0885 1.39823C26.6161 1.08455 27.8671 1.08455 29.0992 1.33428C29.6146 1.94032 29.4355 2.61945 29.4386 3.2529C29.4543 8.21392 29.4449 13.1749 29.448 18.136C29.448 18.6567 29.426 19.1836 29.4732 19.7013C29.6115 21.154 30.3627 21.693 31.9374 21.5164C32.1354 21.4951 32.3334 21.4585 32.588 21.4189C33.2795 22.2686 33.399 23.2919 33.5844 24.3639C32.3523 25.4085 30.897 25.5912 29.4166 25.4633C26.6224 25.2227 25.1922 23.968 25.0162 21.2941C24.9848 20.8373 24.9817 20.3804 24.9817 19.9236C24.9785 14.5058 24.9754 9.08796 24.9848 3.66708C24.9879 2.96054 25.0477 2.254 25.0885 1.39823Z" fill="#6A2381"/>
<path d="M103.295 24.9916C101.868 24.9916 100.611 24.9916 99.2469 24.9916C99.1714 24.6353 99.0551 24.3307 99.052 24.0292C99.0426 19.0012 99.0426 13.9701 99.052 8.94211C99.052 8.68934 99.1211 8.43962 99.1557 8.2173C100.57 7.70262 101.202 7.67826 103.213 8.05589C103.286 8.38784 103.433 8.75634 103.433 9.12484C103.449 14.0219 103.446 18.922 103.44 23.8191C103.443 24.1388 103.364 24.4586 103.295 24.9916Z" fill="#6A2381"/>
<path d="M22.0353 23.0668C22.2899 23.548 22.2396 24.0048 21.9001 24.3611C21.6361 24.6382 21.2904 24.8758 20.9321 25.0189C20.6366 25.1377 20.272 25.1133 19.9357 25.1133C17.2389 25.1164 14.5421 25.1133 11.8453 25.1011C11.7353 25.1011 11.6284 25.0098 11.377 24.8941C11.6158 24.7113 11.7824 24.5408 11.9836 24.4372C14.4698 23.1429 17.132 22.5521 19.9451 22.5795C20.6837 22.5856 21.435 22.5826 22.0353 23.0668Z" fill="#6A2381"/>
<path d="M103.861 3.06733C103.839 4.59309 102.758 5.592 101.164 5.5585C99.6241 5.525 98.5775 4.42864 98.6372 2.89983C98.6906 1.50502 99.7719 0.503071 101.237 0.500026C102.789 0.493935 103.88 1.56288 103.861 3.06733Z" fill="#6A2381"/>
</g>
<defs>
<clipPath id="clip0_35_6442">
<rect width="123" height="25" fill="white" transform="translate(0 0.5)"/>
</clipPath>
</defs>
</svg>
